<svg xmlns="http://www.w3.org/2000/svg" width="512" height="512" viewBox="0 0 512 512">
  <mask id="a">
    <circle cx="256" cy="256" r="256" fill="#fff"/>
  </mask>
  <g>
    <path fill="none" d="m0 160 256-32 256 32v192l-256 32L0 352Z" stroke="currentColor" stroke-width="1"/>
    <path fill="none" d="M0 0h512v160H0Z" stroke="currentColor" stroke-width="1"/>
    <path fill="none" d="M0 352h512v160H0Z" stroke="currentColor" stroke-width="1"/>
    <path fill="none" d="M0 0v512l256-256L0 0z" stroke="currentColor" stroke-width="1"/>
    <path fill="none" d="m345 229-12 11 40 40-40 40 11 11 40-40 40 40 11-11-40-40 40-40-11-11-40 40z" stroke="currentColor" stroke-width="1"/>
    <path fill="none" d="m384 181 21 62-54-38h66l-53 39z" stroke="currentColor" stroke-width="1"/>
  </g>
</svg>
