<svg xmlns="http://www.w3.org/2000/svg" width="512" height="512" viewBox="0 0 512 512">
  <mask id="a">
    <circle cx="256" cy="256" r="256" fill="#fff"/>
  </mask>
  <g>
    <path fill="none" d="M256 0h256v512H0V256Z" stroke="currentColor" stroke-width="1"/>
    <path fill="none" d="M0 0v32l32 32L0 96v160h32l32-32 32 32h32v-83l83 83h45l-8-16 8-15v-14l-83-83h83V96l-32-32 32-32V0H96L64 32 32 0Z" stroke="currentColor" stroke-width="1"/>
    <path fill="none" d="M32 0v32H0v64h32v160h64V96h160V32H96V0Zm96 128 128 128v-31l-97-97z" stroke="currentColor" stroke-width="1"/>
    <circle cx="382" cy="256" r="74" fill="#ff9811"/>
    <path fill="none" d="M382 228a14 14 0 0 0-14 14h-42a14 14 0 0 0 14 14 14 14 0 0 0 14 14 14 14 0 0 0 14 14h28a14 14 0 0 0 14-14 14 14 0 0 0 14-14 14 14 0 0 0 14-14h-42a14 14 0 0 0-14-14z" stroke="currentColor" stroke-width="1"/>
  </g>
</svg>
