<svg xmlns="http://www.w3.org/2000/svg" width="512" height="512" viewBox="0 0 512 512">
  <mask id="a">
    <circle cx="256" cy="256" r="256" fill="#fff"/>
  </mask>
  <g>
    <path fill="none" d="m228 0 32 211-32 211h-32l-32-211L196 0Z" stroke="currentColor" stroke-width="1"/>
    <path fill="none" d="M196 0v450H0V0Z" stroke="currentColor" stroke-width="1"/>
    <path fill="none" d="m178 87-31-14-49 112L49 73 18 87l62 138-62 138 31 14 49-112 49 112 31-14-62-138Z" stroke="currentColor" stroke-width="1"/>
    <path fill="none" d="M98 80 81 96 65 224l16 130 17 16 17-16 15-131-15-127-17-16Z" stroke="currentColor" stroke-width="1"/>
    <path fill="none" d="m154 148-10 76 10 78a159 159 0 0 0 22-77c0-28-10-54-22-77zm-112 0 9 74-9 80a159 159 0 0 1-22-77c0-28 10-54 22-77z" stroke="currentColor" stroke-width="1"/>
    <path fill="none" d="M42 148v154a269 269 0 0 0 39 52V96c-11 12-26 30-39 52zm112 0a269 269 0 0 0-39-52v258c11-12 26-30 39-52V148Z" stroke="currentColor" stroke-width="1"/>
    <path fill="none" d="M512 0v422H228V0Z" stroke="currentColor" stroke-width="1"/>
    <path fill="none" d="m0 450 86-17 75 8 55-51 41 18 106-56 149 70v90H0Z" stroke="currentColor" stroke-width="1"/>
  </g>
</svg>
