<svg xmlns="http://www.w3.org/2000/svg" width="512" height="512" viewBox="0 0 512 512">
  <mask id="a">
    <circle cx="256" cy="256" r="256" fill="#fff"/>
  </mask>
  <g>
    <path fill="none" d="m0 144.7 257-22.4 255 22.4v222.6l-254.9 31L0 367.3z" stroke="currentColor" stroke-width="1"/>
    <path fill="none" d="M0 0h512v144.7H0z" stroke="currentColor" stroke-width="1"/>
    <path fill="none" d="M0 367.3h512V512H0z" stroke="currentColor" stroke-width="1"/>
    <g fill="#eee">
      <path d="m315.6 209.3 21 29 34-11-21 29 21 28.8-34-11-21 29v-36l-34-11 34-11z" stroke="currentColor" stroke-width="1"/>
      <path d="M258.3 328.4a72.3 72.3 0 1 1 34.4-136 89 89 0 1 0 0 127.3 72 72 0 0 1-34.4 8.7z" stroke="currentColor" stroke-width="1"/>
    </g>
  </g>
</svg>
