<svg xmlns="http://www.w3.org/2000/svg" width="512" height="512" viewBox="0 0 512 512">
  <mask id="a">
    <circle cx="256" cy="256" r="256" fill="#fff"/>
  </mask>
  <g>
    <path fill="none" d="M0 0h256l256 256v256H256L0 256z" stroke="currentColor" stroke-width="1"/>
    <path fill="none" d="M0 256v256h256V256z" stroke="currentColor" stroke-width="1"/>
    <path fill="none" d="M256 0h256v256H256z" stroke="currentColor" stroke-width="1"/>
    <path fill="none" d="m152.4 89 16.6 51h53.6l-43.4 31.6 16.6 51-43.4-31.5-43.4 31.5 16.6-51L82.2 140h53.6z" stroke="currentColor" stroke-width="1"/>
    <path fill="none" d="m359.6 289.4 16.6 51h53.6L386.4 372l16.6 51-43.4-31.5-43.4 31.6 16.6-51-43.4-31.6H343z" stroke="currentColor" stroke-width="1"/>
  </g>
</svg>
