<svg xmlns="http://www.w3.org/2000/svg" width="512" height="512" viewBox="0 0 512 512">
  <mask id="a">
    <circle cx="256" cy="256" r="256" fill="#fff"/>
  </mask>
  <g>
    <path fill="none" d="M0 0h512v167l-52.6 83.8L512 345v167H0l72-264.3z" stroke="currentColor" stroke-width="1"/>
    <path fill="none" d="M114.9 166.9H512v178H114.9z" stroke="currentColor" stroke-width="1"/>
    <path fill="none" d="M0 0v512l256-256z" stroke="currentColor" stroke-width="1"/>
    <path fill="none" d="m325 211.5 11.1 34H372l-29 21 11.1 34-29-21-28.9 21 11-34-28.8-21H314zm111.4 0 11 34h35.8l-29 21 11.1 34-29-21-28.9 21 11.1-34-29-21h35.8z" stroke="currentColor" stroke-width="1"/>
  </g>
</svg>
