<svg xmlns="http://www.w3.org/2000/svg" width="512" height="512" viewBox="0 0 512 512">
  <mask id="a">
    <circle cx="256" cy="256" r="256" fill="#fff"/>
  </mask>
  <g>
    <path fill="none" d="M256 0h256v512H0V256Z" stroke="currentColor" stroke-width="1"/>
    <path fill="none" d="M0 0h256v256H0z" stroke="currentColor" stroke-width="1"/>
    <path fill="none" d="M0 0h75v224H0z" stroke="currentColor" stroke-width="1"/>
    <path fill="none" d="M149 0h75v224h-75z" stroke="currentColor" stroke-width="1"/>
    <path fill="none" d="m323 158 13 21h36v71l-27-43-37 59h18l19-34 39 70 39-70 19 34h18l-37-59-27 43v-39h16l12-20h-28v-12h36l13-21zm43 88h-40v14h40zm76 0h-40v14h40z" stroke="currentColor" stroke-width="1"/>
    <path fill="none" d="m301 181 13 38-34-23h42l-34 23zm166 0 13 38-34-23h42l-34 23zM339 282l13 38-34-23h42l-34 23zm90 0 13 38-34-23h42l-34 23zm-45 34 13 38-34-23h42l-34 23z" stroke="currentColor" stroke-width="1"/>
  </g>
</svg>
