<svg xmlns="http://www.w3.org/2000/svg" width="512" height="512" viewBox="0 0 512 512">
  <mask id="a">
    <circle cx="256" cy="256" r="256" fill="#fff"/>
  </mask>
  <g>
    <path fill="none" d="M0 0h512v512H0z" stroke="currentColor" stroke-width="1"/>
    <circle cx="256" cy="256" r="145" fill="#eee"/>
    <circle cx="256" cy="256" r="111" fill="#338af3"/>
    <path fill="none" d="M76 76h360L256 256z" stroke="currentColor" stroke-width="1"/>
    <circle cx="256" cy="256" r="89" fill="#eee"/>
    <circle cx="256" cy="256" r="69" fill="#338af3"/>
    <path fill="none" d="M246 178h20v156h-20z" stroke="currentColor" stroke-width="1"/>
    <path fill="none" d="M334 246v20H178v-20z" stroke="currentColor" stroke-width="1"/>
    <path fill="none" d="m304 193.7 14.2 14.2-110.3 110.3-14.2-14.1z" stroke="currentColor" stroke-width="1"/>
    <path fill="none" d="m318.2 304-14.1 14.2-110.4-110.3 14.2-14.2z" stroke="currentColor" stroke-width="1"/>
    <circle cx="256" cy="256" r="44" fill="#eee"/>
    <circle cx="256" cy="256" r="22" fill="#338af3"/>
    <ellipse cx="256" cy="412" fill="#eee" rx="44" ry="40"/>
    <path fill="none" d="m256 407-78 63h156z" stroke="currentColor" stroke-width="1"/>
  </g>
</svg>
