<svg xmlns="http://www.w3.org/2000/svg" width="512" height="512" viewBox="0 0 512 512">
  <mask id="a">
    <circle cx="256" cy="256" r="256" fill="#fff"/>
  </mask>
  <g>
    <path fill="none" d="M71 0 0 34v91l16 35-16 36v60l256 64 256-64v-60l-16-36 16-35V34L441 0h-85l-32 16-32-16h-72l-32 16-32-16Z" stroke="currentColor" stroke-width="1"/>
    <path fill="none" d="M0 256h512v256H0Z" stroke="currentColor" stroke-width="1"/>
    <path fill="none" d="m292 0-36 256L356 0h-64zm-36 256L512 34V0h-71L256 256zm0 0 256-60v-71L256 256zm0 0L0 125v71l256 60zm0 0L71 0H0v35l256 221zm0 0L220 0h-64l100 256z" stroke="currentColor" stroke-width="1"/>
    <path fill="none" d="m256 128 83 256-217-159h268L173 384Z" stroke="currentColor" stroke-width="1"/>
  </g>
</svg>
