<svg xmlns="http://www.w3.org/2000/svg" width="512" height="512" viewBox="0 0 512 512">
  <mask id="a">
    <circle cx="256" cy="256" r="256" fill="#fff"/>
  </mask>
  <g>
    <path fill="none" d="M512 0v171l-64 85 64 85v171H0V341L341 0Z" stroke="currentColor" stroke-width="1"/>
    <path fill="none" d="M341 171h171v170H341l-64-85z" stroke="currentColor" stroke-width="1"/>
    <path fill="none" d="M0 0h341v341H0Z" stroke="currentColor" stroke-width="1"/>
    <path fill="none" d="M184 133a40 40 0 0 0-40 40v60h80v-60a40 40 0 0 0-40-40z" stroke="currentColor" stroke-width="1"/>
    <path fill="none" d="m167 105 52-37h-64l52 37-20-61zm101 62 37 52v-64l-37 52 61-20zm-62 101-52 37h64l-52-37 20 61zm-101-61-37-52v64l37-52-61 20zm125-92 63 10-45-45 10 63 29-57zm28 115-10 63 45-45-63 10 57 29zm-115 28-63-10 45 45-10-63-29 57Zm-28-115 10-63-45 45 63-10-57-29Z" stroke="currentColor" stroke-width="1"/>
  </g>
</svg>
