<svg xmlns="http://www.w3.org/2000/svg" width="512" height="512" viewBox="0 0 512 512">
  <mask id="a">
    <circle cx="256" cy="256" r="256" fill="#fff"/>
  </mask>
  <g>
    <path fill="none" d="m0 0 192 256L0 512h47l465-189v-34l-32-33 32-33v-34L47 0Z" stroke="currentColor" stroke-width="1"/>
    <path fill="none" d="M0 142v228l140-114z" stroke="currentColor" stroke-width="1"/>
    <path fill="none" d="M192 256 0 95v47l114 114L0 370v47z" stroke="currentColor" stroke-width="1"/>
    <path fill="none" d="M512 223H223L0 0v94l161 162L0 418v94l223-223h289z" stroke="currentColor" stroke-width="1"/>
    <path fill="none" d="M512 0H47l189 189h276z" stroke="currentColor" stroke-width="1"/>
    <path fill="none" d="M512 512H47l189-189h276z" stroke="currentColor" stroke-width="1"/>
  </g>
</svg>
