<svg xmlns="http://www.w3.org/2000/svg" width="512" height="512" viewBox="0 0 512 512">
  <mask id="a">
    <circle cx="256" cy="256" r="256" fill="#fff"/>
  </mask>
  <g>
    <path fill="none" d="M0 0h512v56l-25 32 25 34v268l-26 36 26 30v56H0v-56l25-34-25-32V122l27-33L0 56z" stroke="currentColor" stroke-width="1"/>
    <path fill="none" d="M0 390v66h512v-66z" stroke="currentColor" stroke-width="1"/>
    <circle cx="256" cy="186" r="104" fill="#333"/>
    <circle cx="256" cy="186" r="84" fill="#eee"/>
    <circle cx="256" cy="186" r="64" fill="#333"/>
    <circle cx="256" cy="186" r="44" fill="#eee"/>
    <path fill="none" d="m246 319-49 11v14h118v-14l-49-11z" stroke="currentColor" stroke-width="1"/>
    <path fill="none" d="M148 78h216v108H148z" stroke="currentColor" stroke-width="1"/>
    <path fill="none" d="M246 180h20v150h-20zm87-8h34l-7 15h-20zm-40 0h34l-7 15h-20zm-108 0h34l-7 15h-20zm-40 0h34l-7 15h-20z" stroke="currentColor" stroke-width="1"/>
    <path fill="none" d="M239 172h34l-7 15h-20zM0 56v66h512V56z" stroke="currentColor" stroke-width="1"/>
  </g>
</svg>
